<?xml version="1.0" encoding="utf-8"?>
<!-- Generator: Adobe Illustrator 21.0.0, SVG Export Plug-In . SVG Version: 6.00 Build 0)  -->
<svg version="1.1" id="Layer_1" xmlns="http://www.w3.org/2000/svg" xmlns:xlink="http://www.w3.org/1999/xlink" x="0px" y="0px"
	 width="3000px" height="2000px" viewBox="0 0 3000 2000" style="enable-background:new 0 0 3000 2000;" xml:space="preserve">
<style type="text/css">
	.st0{fill:#606060;}
</style>
<g>
	<path class="st0" d="M415.8,352.1c-3.6-0.9-7.2-0.9-10.7-0.1c-0.6-2-1.4-3.9-2.5-5.7c-5.5-9-15.9-13.1-25.7-11
		c-0.6-2-1.4-3.9-2.5-5.7c-3.4-5.5-8.7-9.4-15-10.9c-6.3-1.5-12.8-0.5-18.3,2.9l-58.8,35.8l-57.3-17c-19.5-5.8-40.3-6.1-60-1
		l-28.3,7.4v-17.1c0-2.2-1.8-3.9-3.9-3.9H78.9c-2.2,0-3.9,1.8-3.9,3.9v139.3c0,2.2,1.8,3.9,3.9,3.9h53.8c2.2,0,3.9-1.8,3.9-3.9
		v-13.8L237.5,472c7.1,1.2,14.3,1.8,21.5,1.8c23.8,0,47.3-6.5,67.9-19.1l95.8-58.4c5.5-3.4,9.4-8.7,10.9-15
		c1.5-6.3,0.5-12.8-2.9-18.3C427.4,357.5,422,353.6,415.8,352.1z M128.8,465H82.9V333.6h45.9v18.2v98.7V465z M425.9,379.5
		c-1,4.2-3.6,7.8-7.4,10.1L322.8,448c-25.1,15.3-54.9,21.1-84,16.2l-102.2-17.1v-92.3l30.3-8c18.3-4.8,37.6-4.5,55.8,0.9l84.8,25.2
		c9.5,2.8,16.2,11.7,16.2,21.7c0,7.2-3.3,13.8-9.1,18.1c-5.8,4.3-13,5.6-20,3.6l-64-19c-2.1-0.6-4.3,0.6-4.9,2.7
		c-0.6,2.1,0.6,4.3,2.7,4.9l64,19c9.3,2.8,19.1,1,26.9-4.8c7.8-5.8,12.3-14.7,12.3-24.4c0-13.4-9-25.4-21.8-29.2l-17.3-5.1
		l52.7-32.1c7.7-4.7,17.8-2.2,22.5,5.4c0.9,1.4,1.5,2.9,1.9,4.5c-0.1,0-0.2,0.1-0.2,0.1l-22,13.8c-1.8,1.2-2.4,3.6-1.2,5.4
		c1.2,1.8,3.6,2.4,5.4,1.2l22-13.8c3.7-2.3,8.1-3,12.4-1.9c4.2,1,7.8,3.6,10.1,7.4c0.9,1.4,1.5,2.9,1.9,4.5c0,0-0.1,0-0.1,0.1
		l-41.9,24.3c-1.9,1.1-2.5,3.5-1.4,5.4c1.1,1.9,3.5,2.5,5.4,1.4l42-24.4c3.7-2.3,8.1-3,12.4-1.9c4.2,1,7.8,3.6,10.1,7.4
		C426.3,370.9,427,375.3,425.9,379.5z"/>
	<path class="st0" d="M228,307.6c3.9,3.9,8.8,6.5,14.5,7.7v6.8c0,2.2,1.8,3.9,3.9,3.9h8.1c2.2,0,3.9-1.8,3.9-3.9V315
		c6.6-1.5,12-4.6,16-9.1c4.7-5.3,7.1-11.9,7.1-19.6c0-7-1.9-12.8-5.8-17.4c-3.4-4.1-9.1-7.3-17.3-9.8v-7.1c0.8,0.8,2,1.3,3.3,1.1
		l14.1-1.8c1.1-0.1,2-0.7,2.7-1.6c0.6-0.9,0.9-2,0.7-3c-1.1-6.4-3.8-11.6-7.9-15.5c-3.4-3.2-7.7-5.4-12.9-6.5v-2.2
		c0-2.2-1.8-3.9-3.9-3.9h-8.1c-2.2,0-3.9,1.8-3.9,3.9v2.1c-5.8,1.2-10.6,3.8-14.3,7.9c-4.5,4.9-6.8,11-6.8,18.1c0,6.9,2,12.9,6,17.8
		c3.4,4.3,8.5,7.6,15.2,9.9v10.7c-0.4-1-0.8-2.1-1-3.3c-0.4-2-2.3-3.4-4.3-3.1l-14.6,1.6c-1.1,0.1-2,0.7-2.7,1.5
		c-0.7,0.9-0.9,1.9-0.8,3C220.4,296.5,223.4,303,228,307.6z M234.7,290.5c0.8,2.1,1.8,4.1,3.1,5.8c2,2.7,4.3,4.6,6.9,5.9
		c1.2,0.6,2.7,0.5,3.8-0.2c1.1-0.7,1.8-2,1.8-3.3v-23.4c0-1.8-1.2-3.3-2.9-3.8c-6.5-1.8-11.2-4.6-14.1-8.1
		c-2.8-3.5-4.2-7.8-4.2-12.9c0-5.1,1.5-9.3,4.7-12.7c3.2-3.5,7.4-5.4,12.9-5.9c2-0.2,3.6-1.9,3.6-3.9v-1.6h0.2v1.6
		c0,2,1.5,3.7,3.5,3.9c5.1,0.6,9,2.2,11.9,5c2,1.9,3.5,4.3,4.5,7.2l-6.4,0.8c-1.5-3.8-4.2-6.6-7.9-8.2c-1.2-0.5-2.6-0.4-3.7,0.3
		c-1.1,0.7-1.8,2-1.8,3.3V262c0,1.8,1.2,3.3,2.9,3.8c8.1,2.2,13.6,4.9,16.3,8.1c2.6,3.1,3.9,7.2,3.9,12.3c0,5.8-1.7,10.5-5.1,14.4
		c-3.5,3.9-8.2,6.3-14.6,7.2c-1.9,0.3-3.4,1.9-3.4,3.9v6.5h-0.2V312c0-2-1.5-3.7-3.5-3.9c-5.6-0.7-10-2.7-13.4-6.1
		c-2.6-2.6-4.6-6.3-5.8-10.8L234.7,290.5z"/>
	<path class="st0" d="M254.5,303.3c0.2,0,0.5,0,0.7-0.1c3.7-0.7,6.7-2.4,9.1-5.2c2.4-2.8,3.6-6.1,3.6-9.8c0-3.4-1-6.4-3.1-8.9
		c-2-2.4-5.1-4.3-9.2-5.5c-1.2-0.3-2.5-0.1-3.5,0.6c-1,0.7-1.6,1.9-1.6,3.1v21.8c0,1.2,0.5,2.3,1.4,3
		C252.7,303,253.6,303.3,254.5,303.3z M258.5,284c0.1,0.1,0.2,0.2,0.2,0.3c0.9,1.1,1.3,2.4,1.3,4c0,1.8-0.5,3.3-1.6,4.6V284z"/>
	<path class="st0" d="M250.4,240c0-1.3-0.6-2.5-1.6-3.2c-1-0.7-2.4-0.9-3.6-0.5c-3,1-5.4,2.8-7.2,5.2c-1.8,2.5-2.7,5.2-2.7,8.2
		c0,2.8,0.8,5.4,2.5,7.8c1.6,2.3,4,4.1,7.1,5.5c0.5,0.2,1,0.3,1.6,0.3c0.8,0,1.5-0.2,2.2-0.6c1.1-0.7,1.8-2,1.8-3.3V240z"/>
</g>
<g>
	<path class="st0" d="M2288.5,427.3h-9.6l9.6-57.2c3.6-21.8-0.5-44.2-11.6-63.3l-37.2-63.6c-5.1-8.8-16.5-11.8-25.3-6.6
		c-8.8,5.1-11.8,16.5-6.6,25.3l26.6,45.4c-6.7,1.8-12.2,7-14.2,13.8l-14.3,48.1c-4.5,15.2-4.8,31.4-0.8,46.8l2.9,11.2h-13.3
		c-2.2,0-3.9,1.8-3.9,3.9v38.6c0,2.2,1.8,3.9,3.9,3.9h93.7c2.2,0,3.9-1.8,3.9-3.9v-38.6C2292.5,429.1,2290.7,427.3,2288.5,427.3z
		 M2212.8,414.1c-3.7-14-3.4-28.7,0.7-42.6l14.3-48.1c1.6-5.3,6.5-8.9,12-8.9c4,0,7.6,1.8,10,5c2.4,3.2,3.1,7.2,2,11l-11.8,39.7
		c-0.6,2.1,0.6,4.3,2.7,4.9c2.1,0.6,4.3-0.6,4.9-2.7l11.8-39.7c1.8-6.2,0.7-12.8-3.2-18c-3.2-4.2-7.7-7-12.8-7.9l-28.7-49
		c-2.9-5-1.2-11.5,3.8-14.5c5-2.9,11.5-1.2,14.5,3.8l37.2,63.6c10.2,17.5,14,38,10.7,58l-9.8,58.5h-54.7L2212.8,414.1z
		 M2284.6,465.9h-85.8v-30.7h14.4c0,0,0,0,0,0c0,0,0,0,0,0h61.1c0,0,0,0,0,0c0,0,0,0,0,0h10.3V465.9z"/>
	<path class="st0" d="M2113.4,469.8v-38.6c0-2.2-1.8-3.9-3.9-3.9h-13.3l2.9-11.2c4-15.4,3.8-31.6-0.8-46.8l-14.3-48.1
		c-2-6.8-7.5-12-14.2-13.8l26.6-45.4c5.1-8.8,2.2-20.1-6.6-25.3c-8.8-5.1-20.1-2.2-25.3,6.6l-37.2,63.6
		c-11.1,19-15.3,41.5-11.6,63.3l9.6,57.2h-9.6c-2.2,0-3.9,1.8-3.9,3.9v38.6c0,2.2,1.8,3.9,3.9,3.9h93.7
		C2111.7,473.8,2113.4,472,2113.4,469.8z M2023.6,368.8c-3.3-19.9,0.5-40.5,10.7-58l37.2-63.6c2.9-5,9.4-6.7,14.5-3.8
		c5,2.9,6.7,9.4,3.8,14.5l-28.7,49c-5.1,0.9-9.6,3.6-12.8,7.9c-3.9,5.2-5.1,11.8-3.2,18l11.8,39.7c0.6,2.1,2.8,3.3,4.9,2.7
		c2.1-0.6,3.3-2.8,2.7-4.9l-11.8-39.7c-1.1-3.8-0.4-7.8,2-11c2.4-3.2,6-5,10-5c5.5,0,10.4,3.7,12,8.9l14.3,48.1
		c4.1,13.9,4.4,28.6,0.7,42.6l-3.5,13.2h-54.7L2023.6,368.8z M2105.6,465.9h-85.8v-30.7h10.3c0,0,0,0,0,0c0,0,0,0,0,0h61.1
		c0,0,0,0,0,0c0,0,0,0,0,0h14.4V465.9z"/>
	<path class="st0" d="M2128.6,312.8c4.1,4.1,9.3,6.9,15.5,8.2v7.5c0,2.2,1.8,3.9,3.9,3.9h8.6c2.2,0,3.9-1.8,3.9-3.9v-7.8
		c7.1-1.6,12.8-4.8,17.1-9.7c5-5.6,7.5-12.6,7.5-20.7c0-7.3-2-13.5-6.1-18.3c-3.6-4.3-9.7-7.7-18.5-10.4v-8.4
		c0.8,1.1,2.2,1.8,3.7,1.6l15-2c1.1-0.1,2-0.7,2.7-1.6c0.6-0.9,0.9-2,0.7-3c-1.2-6.8-4-12.3-8.3-16.4c-3.6-3.4-8.2-5.8-13.8-6.9
		v-2.5c0-2.2-1.8-3.9-3.9-3.9h-8.6c-2.2,0-3.9,1.8-3.9,3.9v2.5c-6.2,1.2-11.3,4-15.3,8.3c-4.8,5.1-7.2,11.5-7.2,19
		c0,7.3,2.1,13.6,6.3,18.8c3.6,4.5,9.1,8,16.2,10.5v12.6c-0.7-1.4-1.2-2.9-1.6-4.6c-0.4-2-2.2-3.4-4.3-3.1l-15.5,1.7
		c-1.1,0.1-2,0.7-2.7,1.5c-0.7,0.9-0.9,1.9-0.8,3C2120.6,301.1,2123.7,308,2128.6,312.8z M2135.7,294.6c0.8,2.3,1.9,4.4,3.3,6.3
		c2.1,2.8,4.6,4.9,7.2,6.2c1.2,0.6,2.7,0.5,3.8-0.2c1.1-0.7,1.8-2,1.8-3.3v-24.9c0-1.8-1.2-3.3-2.9-3.8c-6.9-2-12-4.9-15.1-8.7
		c-3.1-3.8-4.6-8.3-4.6-13.9c0-5.5,1.7-10,5.1-13.7c3.5-3.7,8-5.8,13.9-6.4c2-0.2,3.6-1.9,3.6-3.9v-1.9h0.7v1.9c0,2,1.5,3.7,3.5,3.9
		c5.4,0.6,9.7,2.5,12.8,5.4c2.3,2.1,3.9,4.8,5,8l-7.3,1c-1.6-4.1-4.5-7.1-8.4-8.8c-1.2-0.5-2.6-0.4-3.7,0.3c-1.1,0.7-1.8,2-1.8,3.3
		v23.2c0,1.8,1.2,3.3,2.9,3.8c8.7,2.3,14.5,5.3,17.4,8.7c2.9,3.4,4.2,7.7,4.2,13.2c0,6.2-1.8,11.3-5.5,15.5
		c-3.7,4.2-8.9,6.8-15.7,7.7c-1.9,0.3-3.4,1.9-3.4,3.9v7.2h-0.7v-6.9c0-2-1.5-3.7-3.5-3.9c-6-0.7-10.7-2.9-14.4-6.5
		c-2.9-2.9-5-6.9-6.3-11.9L2135.7,294.6z"/>
	<path class="st0" d="M2156.6,308.2c0.2,0,0.5,0,0.7-0.1c3.9-0.7,7.1-2.6,9.5-5.5c2.5-2.9,3.7-6.4,3.7-10.3c0-3.6-1.1-6.7-3.2-9.3
		c-2.1-2.5-5.3-4.5-9.6-5.7c-1.2-0.3-2.5-0.1-3.5,0.6c-1,0.7-1.6,1.9-1.6,3.1v23.2c0,1.2,0.5,2.3,1.4,3
		C2154.8,307.9,2155.7,308.2,2156.6,308.2z M2160.6,287.3c0.3,0.2,0.5,0.5,0.7,0.7c1,1.2,1.5,2.6,1.5,4.4c0,2-0.6,3.7-1.9,5.2
		c-0.1,0.1-0.2,0.2-0.3,0.3V287.3z"/>
	<path class="st0" d="M2152,241.1c0-1.3-0.6-2.5-1.6-3.2c-1-0.7-2.4-0.9-3.6-0.5c-3.1,1.1-5.6,2.9-7.5,5.4c-1.9,2.6-2.8,5.5-2.8,8.6
		c0,2.9,0.9,5.6,2.6,8.1c1.7,2.4,4.2,4.3,7.4,5.7c0.5,0.2,1,0.3,1.6,0.3c0.8,0,1.5-0.2,2.2-0.6c1.1-0.7,1.8-2,1.8-3.3V241.1z"/>
</g>
<g>
	<path class="st0" d="M2921.1,429.1h-9.6l9.6-57.2c3.6-21.8-0.5-44.2-11.6-63.3l-37.2-63.6c-2.5-4.3-6.5-7.3-11.3-8.5
		c-4.8-1.2-9.7-0.6-14,1.9c-4.3,2.5-7.3,6.5-8.5,11.3c-1.2,4.8-0.6,9.7,1.9,14l26.6,45.4c-6.7,1.8-12.2,7-14.2,13.8l-14.3,48.1
		c-4.5,15.2-4.8,31.4-0.8,46.8l2.9,11.2h-13.3c-2.2,0-3.9,1.8-3.9,3.9v38.6c0,2.2,1.8,3.9,3.9,3.9h93.7c2.2,0,3.9-1.8,3.9-3.9V433
		C2925,430.9,2923.2,429.1,2921.1,429.1z M2845.3,415.9c-3.7-14-3.4-28.7,0.7-42.6l14.3-48.1c1.6-5.3,6.5-8.9,12-8.9
		c4,0,7.6,1.8,10,5c2.4,3.2,3.1,7.2,2,11l-11.8,39.7c-0.6,2.1,0.6,4.3,2.7,4.9c2.1,0.6,4.3-0.6,4.9-2.7l11.8-39.7
		c1.8-6.2,0.7-12.8-3.2-18c-3.2-4.2-7.7-7-12.8-7.9l-28.7-49c-1.4-2.4-1.8-5.3-1.1-8c0.7-2.7,2.5-5,4.9-6.5c2.4-1.4,5.3-1.8,8-1.1
		c2.7,0.7,5,2.5,6.5,4.9l37.2,63.6c10.2,17.5,14,38,10.7,58l-9.8,58.5h-54.7L2845.3,415.9z M2917.1,467.7h-85.8V437h14.4
		c0,0,0,0,0,0c0,0,0,0,0,0h61.1c0,0,0,0,0,0c0,0,0,0,0,0h10.3V467.7z"/>
	<path class="st0" d="M2745.9,471.6V433c0-2.2-1.8-3.9-3.9-3.9h-13.3l2.9-11.2c4-15.4,3.8-31.6-0.8-46.8l-14.3-48.1
		c-2-6.8-7.5-12-14.2-13.8l26.6-45.4c5.1-8.8,2.2-20.1-6.6-25.3c-4.3-2.5-9.2-3.2-14-1.9c-4.8,1.2-8.8,4.3-11.3,8.5l-37.2,63.6
		c-11.1,19-15.3,41.5-11.6,63.3l9.6,57.2h-9.6c-2.2,0-3.9,1.8-3.9,3.9v38.6c0,2.2,1.8,3.9,3.9,3.9h93.7
		C2744.2,475.6,2745.9,473.8,2745.9,471.6z M2656.1,370.6c-3.3-19.9,0.4-40.5,10.7-58l37.2-63.6c1.4-2.4,3.7-4.2,6.5-4.9
		c2.7-0.7,5.6-0.3,8,1.1c5,2.9,6.7,9.4,3.8,14.5l-28.7,49c-5.1,0.9-9.6,3.6-12.8,7.9c-3.9,5.2-5.1,11.8-3.2,18l11.8,39.7
		c0.6,2.1,2.8,3.3,4.9,2.7c2.1-0.6,3.3-2.8,2.7-4.9l-11.8-39.7c-1.1-3.8-0.4-7.8,2-11c2.4-3.2,6-5,10-5c5.5,0,10.4,3.7,12,8.9
		l14.3,48.1c4.1,13.9,4.4,28.6,0.7,42.6l-3.5,13.2h-54.7L2656.1,370.6z M2738.1,467.7h-85.8V437h10.3c0,0,0,0,0,0c0,0,0,0,0,0h61.1
		c0,0,0,0,0,0c0,0,0,0,0,0h14.4V467.7z"/>
	<path class="st0" d="M2750.2,265.2h9.5v82.7c0,2.2,1.8,3.9,3.9,3.9h42c2.2,0,3.9-1.8,3.9-3.9v-82.7h9.5c1.5,0,2.9-0.9,3.6-2.3
		c0.6-1.4,0.4-3-0.6-4.2l-34.4-40.7c-0.7-0.9-1.8-1.4-3-1.4s-2.3,0.5-3,1.4l-34.4,40.7c-1,1.2-1.2,2.8-0.6,4.2
		C2747.3,264.3,2748.7,265.2,2750.2,265.2z M2784.7,226.6l26,30.7h-4.9c-2.2,0-3.9,1.8-3.9,3.9v82.7h-34.2v-82.7
		c0-2.2-1.8-3.9-3.9-3.9h-4.9L2784.7,226.6z"/>
</g>
<g>
	<path class="st0" d="M1037.5,352c-0.6-2-1.4-3.9-2.5-5.7c-5.5-9-15.9-13.1-25.7-11c-0.6-2-1.4-3.9-2.5-5.7
		c-7-11.4-21.9-15-33.3-8.1l-58.8,35.8l-57.3-17c-19.5-5.8-40.3-6.1-60-1l-28.3,7.4v-17.1c0-2.2-1.8-3.9-3.9-3.9h-53.8
		c-2.2,0-3.9,1.8-3.9,3.9v139.3c0,2.2,1.8,3.9,3.9,3.9h53.8c2.2,0,3.9-1.8,3.9-3.9v-13.8L870,472c7.1,1.2,14.3,1.8,21.5,1.8
		c23.8,0,47.3-6.5,67.9-19.1l95.8-58.4c11.4-7,15-21.9,8.1-33.3C1057.8,354,1047.3,349.9,1037.5,352z M761.3,465h-45.9V333.6h45.9
		v18.2v98.7V465z M1058.4,379.5c-1,4.2-3.6,7.8-7.4,10.1L955.3,448c-25.1,15.3-54.9,21.1-84,16.2l-102.2-17.1v-92.3l30.3-8
		c18.3-4.8,37.6-4.5,55.8,0.9l84.8,25.2c9.5,2.8,16.2,11.7,16.2,21.7c0,7.2-3.3,13.8-9.1,18.1c-5.8,4.3-13,5.6-20,3.6l-64-19
		c-2.1-0.6-4.3,0.6-4.9,2.7c-0.6,2.1,0.6,4.3,2.7,4.9l64,19c9.3,2.8,19.1,1,26.9-4.8c7.8-5.8,12.3-14.7,12.3-24.4
		c0-13.4-9-25.4-21.8-29.2l-17.3-5.1l52.7-32.1c7.7-4.7,17.8-2.2,22.5,5.4c0.9,1.4,1.5,2.9,1.9,4.5c-0.1,0-0.2,0.1-0.2,0.1l-22,13.8
		c-1.8,1.2-2.4,3.6-1.2,5.4s3.6,2.4,5.4,1.2l22-13.8c7.7-4.7,17.8-2.2,22.5,5.4c0.9,1.4,1.5,2.9,1.9,4.5c0,0-0.1,0-0.1,0.1
		l-41.9,24.3c-1.9,1.1-2.5,3.5-1.4,5.4c1.1,1.9,3.5,2.5,5.4,1.4l42-24.4c7.7-4.7,17.8-2.2,22.5,5.4
		C1058.8,370.9,1059.5,375.3,1058.4,379.5z"/>
	<path class="st0" d="M848.4,267h9.5v55.2c0,2.2,1.8,3.9,3.9,3.9h42c2.2,0,3.9-1.8,3.9-3.9V267h9.5c1.5,0,2.9-0.9,3.6-2.3
		c0.6-1.4,0.4-3-0.6-4.2l-34.4-40.7c-0.7-0.9-1.8-1.4-3-1.4c-1.2,0-2.3,0.5-3,1.4l-34.4,40.7c-1,1.2-1.2,2.8-0.6,4.2
		C845.5,266.1,846.9,267,848.4,267z M882.9,228.4l25.9,30.7h-4.9c-2.2,0-3.9,1.8-3.9,3.9v55.2h-34.2V263c0-2.2-1.8-3.9-3.9-3.9h-4.9
		L882.9,228.4z"/>
</g>
<g>
	<path class="st0" d="M1680.8,352.1c-3.6-0.9-7.2-0.9-10.7-0.1c-0.6-2-1.4-3.9-2.5-5.7c-5.5-9-15.9-13.1-25.7-11
		c-0.6-2-1.4-3.9-2.5-5.7c-3.4-5.5-8.7-9.4-15-10.9c-6.3-1.5-12.8-0.5-18.3,2.9l-58.8,35.8l-57.3-17c-19.5-5.8-40.3-6.1-60-1
		l-28.3,7.4v-17.1c0-2.2-1.8-3.9-3.9-3.9H1344c-2.2,0-3.9,1.8-3.9,3.9v139.3c0,2.2,1.8,3.9,3.9,3.9h53.8c2.2,0,3.9-1.8,3.9-3.9
		v-13.8l100.9,16.9c7.1,1.2,14.3,1.8,21.5,1.8c23.8,0,47.3-6.5,67.9-19.1l95.8-58.4c5.5-3.4,9.4-8.7,10.9-15
		c1.5-6.3,0.5-12.8-2.9-18.3C1692.4,357.5,1687.1,353.6,1680.8,352.1z M1393.8,465h-45.9V333.6h45.9v18.2v98.7V465z M1691,379.5
		c-1,4.2-3.6,7.8-7.4,10.1l-95.8,58.4c-25.1,15.3-54.9,21.1-84,16.2l-102.2-17.1v-92.3l30.3-8c18.3-4.8,37.6-4.5,55.8,0.9l84.8,25.2
		c9.5,2.8,16.2,11.7,16.2,21.7c0,7.2-3.3,13.8-9.1,18.1c-5.8,4.3-13,5.6-20,3.6l-64-19c-2.1-0.6-4.3,0.6-4.9,2.7
		c-0.6,2.1,0.6,4.3,2.7,4.9l64,19c9.3,2.8,19.1,1,26.9-4.8c7.8-5.8,12.3-14.7,12.3-24.4c0-13.4-9-25.4-21.8-29.2l-17.3-5.1
		l52.7-32.1c7.7-4.7,17.8-2.2,22.5,5.4c0.9,1.4,1.5,2.9,1.9,4.5c-0.1,0-0.2,0.1-0.2,0.1l-22,13.8c-1.8,1.2-2.4,3.6-1.2,5.4
		c1.2,1.8,3.6,2.4,5.4,1.2l22-13.8c3.7-2.3,8.1-3,12.4-1.9c4.2,1,7.8,3.6,10.1,7.4c0.9,1.4,1.5,2.9,1.9,4.5c0,0-0.1,0-0.1,0.1
		l-41.9,24.3c-1.9,1.1-2.5,3.5-1.4,5.4c1.1,1.9,3.5,2.5,5.4,1.4l42-24.4c3.7-2.3,8.1-3,12.4-1.9c4.2,1,7.8,3.6,10.1,7.4
		C1691.3,370.9,1692,375.3,1691,379.5z"/>
	<path class="st0" d="M1512.4,324.7c0.7,0.9,1.8,1.4,3,1.4s2.3-0.5,3-1.4l34.4-40.7c1-1.2,1.2-2.8,0.6-4.2c-0.6-1.4-2-2.3-3.6-2.3
		h-9.5v-55.2c0-2.2-1.8-3.9-3.9-3.9h-42c-2.2,0-3.9,1.8-3.9,3.9v55.2h-9.5c-1.5,0-2.9,0.9-3.6,2.3c-0.6,1.4-0.4,3,0.6,4.2
		L1512.4,324.7z M1494.3,285.4c2.2,0,3.9-1.8,3.9-3.9v-55.2h34.2v55.2c0,2.2,1.8,3.9,3.9,3.9h4.9l-26,30.7l-25.9-30.7H1494.3z"/>
</g>
<g>
	<path class="st0" d="M167.4,917.3c2.2,0,3.9-1.8,3.9-3.9v-79c0-2.2-1.8-3.9-3.9-3.9h-41.8c-2.2,0-3.9,1.8-3.9,3.9v79
		c0,2.2,1.8,3.9,3.9,3.9H167.4z M129.5,838.2h34v71.1h-34V838.2z"/>
	<path class="st0" d="M239.5,917.3c2.2,0,3.9-1.8,3.9-3.9V747c0-2.2-1.8-3.9-3.9-3.9h-41.8c-2.2,0-3.9,1.8-3.9,3.9v166.3
		c0,2.2,1.8,3.9,3.9,3.9H239.5z M201.6,751h34v158.4h-34V751z"/>
	<path class="st0" d="M311.6,917.3c2.2,0,3.9-1.8,3.9-3.9V771.5c0-2.2-1.8-3.9-3.9-3.9h-41.8c-2.2,0-3.9,1.8-3.9,3.9v141.8
		c0,2.2,1.8,3.9,3.9,3.9H311.6z M273.7,775.5h34v133.9h-34V775.5z"/>
	<path class="st0" d="M383.7,917.3c2.2,0,3.9-1.8,3.9-3.9V723.4c0-2.2-1.8-3.9-3.9-3.9h-41.8c-2.2,0-3.9,1.8-3.9,3.9v189.9
		c0,2.2,1.8,3.9,3.9,3.9H383.7z M345.8,727.3h34v182h-34V727.3z"/>
	<path class="st0" d="M400.4,932.1H108.9c-2.2,0-3.9,1.8-3.9,3.9c0,2.2,1.8,3.9,3.9,3.9h291.4c2.2,0,3.9-1.8,3.9-3.9
		C404.3,933.9,402.5,932.1,400.4,932.1z"/>
</g>
<g>
	<path class="st0" d="M776,714.6c-2.2,0-3.9,1.8-3.9,3.9v222.4c0,2.2,1.8,3.9,3.9,3.9h222.4c2.2,0,3.9-1.8,3.9-3.9
		c0-2.2-1.8-3.9-3.9-3.9H779.9V718.6C779.9,716.4,778.1,714.6,776,714.6z"/>
	<path class="st0" d="M799,866.8c0.8,0.8,1.8,1.2,2.8,1.2s2-0.4,2.8-1.2l56.6-56.6c2.3,1.6,5.2,2.5,8.2,2.5c3,0,5.8-0.9,8.1-2.5
		l29.9,29.9c-0.9,1.9-1.4,4-1.4,6.2c0,8.1,6.6,14.6,14.6,14.6s14.6-6.6,14.6-14.6c0-2.3-0.6-4.5-1.5-6.5l58.8-58.8
		c1.5-1.5,1.5-4,0-5.6c-1.5-1.5-4-1.5-5.6,0l-58.5,58.5c-2.3-1.4-4.9-2.3-7.8-2.3c-3,0-5.7,0.9-8,2.4l-29.9-29.9
		c0.9-1.9,1.4-3.9,1.4-6.1c0-8.1-6.6-14.6-14.6-14.6s-14.6,6.6-14.6,14.6c0,2.1,0.5,4.2,1.3,6L799,861.3
		C797.4,862.8,797.4,865.3,799,866.8z M927.3,846.4c0,3.7-3,6.7-6.7,6.7s-6.7-3-6.7-6.7s3-6.7,6.7-6.7S927.3,842.7,927.3,846.4z
		 M869.3,791.4c3.7,0,6.7,3,6.7,6.7s-3,6.7-6.7,6.7s-6.7-3-6.7-6.7S865.6,791.4,869.3,791.4z"/>
</g>
<g>
	<path class="st0" d="M1509.2,719.8c-63.5,0-115.1,51.6-115.1,115.1s51.6,115.1,115.1,115.1c30.8,0,59.7-12,81.4-33.7
		c1.5-1.5,1.5-4,0-5.6l-77.5-77.5V723.8C1513.1,721.6,1511.3,719.8,1509.2,719.8z M1582.2,913.5c-19.9,18.5-45.7,28.7-73,28.7
		c-59.1,0-107.2-48.1-107.2-107.2c0-57.8,46-105.1,103.3-107.2V835c0,1,0.4,2,1.2,2.8L1582.2,913.5z"/>
	<path class="st0" d="M1608.8,907.1c1,0,2-0.4,2.8-1.2c21.7-21.7,33.7-50.7,33.7-81.4c0-63.5-51.6-115.1-115.1-115.1
		c-2.2,0-3.9,1.8-3.9,3.9v111.2c0,1,0.4,2,1.2,2.8l78.6,78.6C1606.8,906.7,1607.8,907.1,1608.8,907.1z M1534.1,717.3
		c57.3,2.1,103.3,49.4,103.3,107.2c0,27.3-10.2,53.1-28.7,73l-74.6-74.6V717.3z"/>
</g>
<g>
	<path class="st0" d="M2152.2,693.6c-75.1,0-136.1,61.1-136.1,136.1s61.1,136.1,136.1,136.1s136.1-61.1,136.1-136.1
		S2227.2,693.6,2152.2,693.6z M2152.2,958c-70.7,0-128.3-57.5-128.3-128.3s57.5-128.3,128.3-128.3c70.7,0,128.3,57.5,128.3,128.3
		S2222.9,958,2152.2,958z"/>
	<path class="st0" d="M2195.3,839.6c-4,0-7.2,1.7-9.3,4.9c-2.4,3.6-3.6,9.6-3.6,19c0,9.4,1.1,15.4,3.6,18.9c2.2,3.3,5.4,5,9.3,5
		c4,0,7.2-1.7,9.3-4.9c2.4-3.6,3.6-9.7,3.6-19c0-9.3-1.1-15.4-3.5-19.1C2202.4,841.3,2199.2,839.6,2195.3,839.6z M2198,878.2
		c-0.6,0.8-1.2,1.4-2.8,1.4c-1.3,0-2.1-0.4-2.8-1.5c-0.8-1.2-2.2-4.7-2.2-14.5c0-9.8,1.4-13.4,2.2-14.6c0.6-0.8,1.2-1.4,2.8-1.4
		c1.3,0,2.2,0.4,2.8,1.4c0.8,1.2,2.2,4.8,2.2,14.7C2200.2,873.4,2198.9,876.9,2198,878.2z"/>
	<path class="st0" d="M2198.6,759.8c-0.7-1.2-2-1.9-3.4-1.9h-17.7c-1.5,0-2.8,0.8-3.5,2.2l-68.4,135.5c-0.6,1.2-0.6,2.7,0.2,3.8
		c0.7,1.2,2,1.9,3.4,1.9h18.2c1.5,0,2.9-0.8,3.5-2.2l67.9-135.5C2199.4,762.4,2199.3,761,2198.6,759.8z M2125,893.4h-9.4l64.4-127.6
		h8.9L2125,893.4z"/>
	<path class="st0" d="M2118.1,814.6c2.3-3.6,3.4-9.6,3.4-19c0-9.4-1.1-15.4-3.5-18.9c-2.2-3.3-5.4-5-9.4-5c-3.9,0-7.1,1.7-9.3,4.9
		c-2.4,3.6-3.6,9.6-3.6,19c0,9.4,1.1,15.4,3.6,19.1c2.2,3.2,5.4,4.8,9.3,4.8C2112.6,819.5,2115.8,817.8,2118.1,814.6z M2111.5,810.2
		c-0.7,1-1.6,1.5-2.9,1.5c-1.3,0-2.1-0.4-2.8-1.4c-0.8-1.2-2.2-4.8-2.2-14.6c0-9.8,1.4-13.4,2.2-14.6c0.7-1,1.5-1.5,2.8-1.5
		c1.3,0,2.1,0.4,2.9,1.5c0.8,1.2,2.1,4.7,2.1,14.5C2113.6,805.5,2112.3,809,2111.5,810.2z"/>
	<path class="st0" d="M2132.5,824c5.7-6.3,8.6-15.8,8.6-28.2c0-12.5-2.9-22-8.6-28.3c-5.8-6.3-13.8-9.6-23.9-9.6
		c-9.8,0-17.6,3.2-23.4,9.6c-5.7,6.3-8.6,15.8-8.6,28.2c0,12.5,2.9,22,8.6,28.3c5.8,6.3,13.8,9.6,23.9,9.6
		C2118.8,833.6,2126.7,830.4,2132.5,824z M2084.5,795.8c0-10.4,2.2-18.1,6.5-22.9c4.3-4.7,10.1-7,17.6-7c7.8,0,13.8,2.3,18.1,7
		c4.3,4.7,6.5,12.5,6.5,23c0,10.4-2.2,18.1-6.5,22.9c-4.3,4.7-10.1,7-17.6,7c-7.8,0-13.8-2.3-18.1-7
		C2086.7,814,2084.5,806.3,2084.5,795.8z"/>
	<path class="st0" d="M2195.4,825.8c-9.9,0-17.8,3.2-23.6,9.6c-5.7,6.3-8.6,15.8-8.6,28.2c0,12.5,2.9,22,8.6,28.3
		c5.8,6.4,13.8,9.6,23.9,9.6c9.8,0,17.6-3.2,23.4-9.6c5.7-6.3,8.6-15.8,8.6-28.3c0-12.5-2.9-22-8.6-28.2
		C2213.3,829,2205.4,825.8,2195.4,825.8z M2213.3,886.6c-4.3,4.7-10.1,7-17.6,7c-7.8,0-13.8-2.3-18.1-7c-4.3-4.8-6.5-12.5-6.5-23
		c0-10.4,2.2-18.1,6.5-22.9c4.3-4.7,10.1-7,17.8-7c7.7,0,13.6,2.3,17.9,7c4.3,4.8,6.5,12.5,6.5,22.9
		C2219.9,874.1,2217.7,881.9,2213.3,886.6z"/>
</g>
<g>
	<path class="st0" d="M2890.7,738.2h-212c-15.4,0-27.9,12.5-27.9,27.9v11.5v40.7v75c0,15.4,12.5,27.9,27.9,27.9h212
		c15.4,0,27.9-12.5,27.9-27.9v-75v-40.7v-11.5C2918.6,750.8,2906.1,738.2,2890.7,738.2z M2910.7,814.4h-252.1v-32.8h252.1V814.4z
		 M2890.7,913.4h-212c-11,0-20-9-20-20v-71.1h252.1v71.1C2910.7,904.4,2901.7,913.4,2890.7,913.4z M2910.7,773.7h-252.1v-7.5
		c0-11,9-20,20-20h212c11,0,20,9,20,20V773.7z"/>
	<path class="st0" d="M2862.8,849.7c-4.2,0-8.2,1.3-11.6,3.6c-3.4-2.4-7.4-3.6-11.6-3.6c-11.2,0-20.3,9.1-20.3,20.3
		c0,11.2,9.1,20.3,20.3,20.3c4.2,0,8.2-1.3,11.6-3.6c3.4,2.4,7.4,3.6,11.6,3.6c11.2,0,20.3-9.1,20.3-20.3
		C2883.1,858.9,2874,849.7,2862.8,849.7z M2862.8,882.5c-3.3,0-6.5-1.3-8.8-3.6c-0.8-0.8-1.8-1.2-2.8-1.2c-1,0-2,0.4-2.8,1.2
		c-2.4,2.4-5.5,3.6-8.8,3.6c-6.9,0-12.5-5.6-12.5-12.5s5.6-12.5,12.5-12.5c3.3,0,6.5,1.3,8.8,3.6c1.5,1.5,4,1.5,5.6,0
		c2.4-2.4,5.5-3.6,8.8-3.6c6.9,0,12.5,5.6,12.5,12.5S2869.7,882.5,2862.8,882.5z"/>
</g>
<g>
	<path class="st0" d="M387.9,1374.4h-8.7v-158.5c0-2.2-1.8-3.9-3.9-3.9H134c-2.2,0-3.9,1.8-3.9,3.9v158.5h-8.7
		c-2.2,0-3.9,1.8-3.9,3.9c0,20.1,16.4,36.4,36.4,36.4h201.5c20.1,0,36.4-16.3,36.4-36.4C391.8,1376.2,390.1,1374.4,387.9,1374.4z
		 M138,1219.9h233.3v154.6H138V1219.9z M281.1,1382.3l-3.6,4.3h-45.6l-3.6-4.3H281.1z M355.4,1406.9H153.9
		c-14.4,0-26.4-10.7-28.3-24.6h8.4h83.8l9.2,10.8c0.7,0.9,1.8,1.4,3,1.4h49.3c1.2,0,2.3-0.5,3-1.4l9.2-10.8h83.8h8.4
		C381.8,1396.2,369.8,1406.9,355.4,1406.9z"/>
	<path class="st0" d="M325.8,1260.6l-45.6,45.6c-1.8-1-3.8-1.6-6-1.6c-2.3,0-4.4,0.6-6.2,1.7l-22.7-22.7c0.6-1.4,0.9-3,0.9-4.6
		c0-6.8-5.5-12.3-12.3-12.3c-6.8,0-12.3,5.5-12.3,12.3c0,1.6,0.3,3.1,0.9,4.6l-44.6,44.6c-1.5,1.5-1.5,4,0,5.6
		c0.8,0.8,1.8,1.2,2.8,1.2c1,0,2-0.4,2.8-1.2l44.1-44.1c1.9,1.1,4,1.8,6.3,1.8c2.3,0,4.4-0.6,6.3-1.7l22.7,22.7
		c-0.6,1.5-1,3.1-1,4.7c0,6.8,5.5,12.3,12.3,12.3s12.3-5.5,12.3-12.3c0-1.7-0.4-3.4-1-4.9l45.9-45.9c1.5-1.5,1.5-4,0-5.6
		C329.9,1259.1,327.4,1259.1,325.8,1260.6z M229.4,1279c0-2.5,2-4.5,4.5-4.5s4.5,2,4.5,4.5c0,2.5-2,4.5-4.5,4.5
		S229.4,1281.4,229.4,1279z M274.2,1321.4c-2.5,0-4.5-2-4.5-4.5c0-2.5,2-4.5,4.5-4.5s4.5,2,4.5,4.5
		C278.7,1319.4,276.7,1321.4,274.2,1321.4z"/>
</g>
<g>
	<path class="st0" d="M814.5,1204.2c-2.2,0-3.9,1.8-3.9,3.9v210.5c0,2.2,1.8,3.9,3.9,3.9h145.3c2.2,0,3.9-1.8,3.9-3.9v-210.5
		c0-2.2-1.8-3.9-3.9-3.9H814.5z M955.8,1212.1v150.5H818.5v-150.5H955.8z M818.5,1414.7v-44.2h137.4v44.2H818.5z"/>
	<path class="st0" d="M906.5,1379.7h-38.7c-2.2,0-3.9,1.8-3.9,3.9v17.5c0,2.2,1.8,3.9,3.9,3.9h38.7c2.2,0,3.9-1.8,3.9-3.9v-17.5
		C910.5,1381.4,908.7,1379.7,906.5,1379.7z M902.6,1397.1h-30.9v-9.6h30.9V1397.1z"/>
	<path class="st0" d="M878.9,1304.4c-1.4-1.9-2.4-4.1-2.9-6.8l-12.8,1.4c1,6.4,3.2,11.4,6.8,15c3.5,3.5,8.1,5.6,13.8,6.3v8.9h7.1
		v-9.2c6.4-0.9,11.3-3.4,14.9-7.5c3.6-4.1,5.4-9,5.4-15c0-5.3-1.4-9.6-4.3-13c-2.8-3.4-8.2-6.1-16-8.3v-19.2c3.2,1.4,5.1,4,5.9,7.8
		l12.4-1.6c-0.9-4.9-2.8-8.8-5.9-11.7c-3.1-2.9-7.2-4.7-12.4-5.3v-4.9h-7.1v4.9c-5.6,0.6-10.1,2.7-13.5,6.3
		c-3.4,3.6-5.1,8.1-5.1,13.5c0,5.3,1.5,9.8,4.5,13.5c3,3.7,7.7,6.5,14.1,8.3v20.5C882,1307.7,880.4,1306.3,878.9,1304.4z
		 M890.8,1290.1c2.9,0.9,5.1,2.1,6.3,3.7c1.3,1.6,1.9,3.5,1.9,5.7c0,2.5-0.8,4.6-2.3,6.4c-1.5,1.8-3.5,2.9-6,3.4V1290.1z
		 M879,1270.4c-1-1.5-1.6-3.1-1.6-4.8c0-1.9,0.6-3.6,1.7-5.2c1.1-1.6,2.7-2.7,4.6-3.3v17C881.6,1273.1,880,1271.9,879,1270.4z"/>
</g>
<g>
	<path class="st0" d="M1519.7,1217.4c-71,0-128.8,39.9-128.8,89c0,20.1,9.9,39.7,27.8,55.4v43.7c0,1.3,0.7,2.6,1.8,3.3
		c0.7,0.4,1.4,0.6,2.2,0.6c0.5,0,1.1-0.1,1.6-0.3l46.7-20.2c15.5,4.4,31.9,6.6,48.8,6.6c71,0,128.8-39.9,128.8-89
		C1648.5,1257.3,1590.7,1217.4,1519.7,1217.4z M1519.7,1387.6c-16.6,0-32.8-2.2-47.9-6.7c-0.9-0.3-1.8-0.2-2.7,0.2l-42.5,18.4V1360
		c0-1.2-0.5-2.3-1.4-3c-17.3-14.5-26.4-32-26.4-50.5c0-44.8,54.3-81.2,121-81.2c66.7,0,121,36.4,121,81.2
		C1640.6,1351.2,1586.4,1387.6,1519.7,1387.6z"/>
	<path class="st0" d="M1492.2,1269.3h-22.4c-2.2,0-3.9,1.8-3.9,3.9v72.8c0,2.2,1.8,3.9,3.9,3.9h22.4c2.2,0,3.9-1.8,3.9-3.9v-72.8
		C1496.1,1271.1,1494.4,1269.3,1492.2,1269.3z M1488.3,1342.1h-14.6v-64.9h14.6V1342.1z"/>
	<path class="st0" d="M1530.9,1280h-22.4c-2.2,0-3.9,1.8-3.9,3.9v62.1c0,2.2,1.8,3.9,3.9,3.9h22.4c2.2,0,3.9-1.8,3.9-3.9V1284
		C1534.8,1281.8,1533.1,1280,1530.9,1280z M1526.9,1342.1h-14.6v-54.2h14.6V1342.1z"/>
	<path class="st0" d="M1569.5,1259h-22.4c-2.2,0-3.9,1.8-3.9,3.9v83.1c0,2.2,1.8,3.9,3.9,3.9h22.4c2.2,0,3.9-1.8,3.9-3.9v-83.1
		C1573.5,1260.7,1571.7,1259,1569.5,1259z M1565.6,1342.1h-14.6v-75.3h14.6V1342.1z"/>
</g>
<g>
	<path class="st0" d="M2152.2,1217.4c-71,0-128.8,39.9-128.8,89c0,20.1,9.9,39.7,27.8,55.4v43.7c0,1.3,0.7,2.6,1.8,3.3
		c0.7,0.4,1.4,0.6,2.2,0.6c0.5,0,1.1-0.1,1.6-0.3l46.7-20.2c15.5,4.4,31.9,6.6,48.8,6.6c71,0,128.8-39.9,128.8-89
		C2281,1257.3,2223.2,1217.4,2152.2,1217.4z M2152.2,1387.6c-16.6,0-32.8-2.2-47.9-6.7c-0.9-0.3-1.8-0.2-2.7,0.2l-42.5,18.4V1360
		c0-1.2-0.5-2.3-1.4-3c-17.3-14.5-26.4-32-26.4-50.5c0-44.8,54.3-81.2,121-81.2c66.7,0,121,36.4,121,81.2
		C2273.1,1351.2,2218.9,1387.6,2152.2,1387.6z"/>
	<path class="st0" d="M2155.8,1298.1v-19.2c3.2,1.4,5.1,4,5.9,7.8l12.4-1.6c-0.8-4.9-2.8-8.8-5.9-11.7c-3.1-2.9-7.2-4.7-12.4-5.3
		v-4.9h-7.1v4.9c-5.6,0.6-10.1,2.7-13.5,6.3c-3.4,3.6-5.1,8.1-5.1,13.5c0,5.3,1.5,9.8,4.5,13.5c3,3.7,7.7,6.5,14.1,8.3v20.5
		c-1.8-0.8-3.4-2.2-4.8-4.1c-1.4-1.9-2.4-4.1-2.9-6.8l-12.8,1.4c1,6.4,3.2,11.4,6.8,15c3.5,3.5,8.1,5.6,13.8,6.3v8.9h7.1v-9.2
		c6.4-0.9,11.3-3.4,14.9-7.5c3.6-4.1,5.4-9,5.4-15c0-5.3-1.4-9.6-4.3-13C2169,1302.9,2163.7,1300.2,2155.8,1298.1z M2148.7,1295.7
		c-2.1-0.9-3.7-2.1-4.8-3.6c-1-1.5-1.6-3.1-1.6-4.8c0-1.9,0.6-3.6,1.7-5.2c1.1-1.6,2.7-2.7,4.6-3.3V1295.7z M2161.8,1327.5
		c-1.5,1.8-3.5,2.9-6,3.4v-19.1c2.9,0.9,5.1,2.1,6.3,3.7c1.3,1.6,1.9,3.5,1.9,5.7C2164.1,1323.5,2163.4,1325.7,2161.8,1327.5z"/>
</g>
<g>
	<path class="st0" d="M2784.7,1217.4c-71,0-128.8,39.9-128.8,89c0,20.1,9.9,39.7,27.8,55.4v43.7c0,1.3,0.7,2.6,1.8,3.3
		c0.7,0.4,1.4,0.6,2.2,0.6c0.5,0,1.1-0.1,1.6-0.3l46.7-20.2c15.5,4.4,31.9,6.6,48.8,6.6c71,0,128.8-39.9,128.8-89
		C2913.5,1257.3,2855.7,1217.4,2784.7,1217.4z M2784.7,1387.6c-16.6,0-32.8-2.2-47.9-6.7c-0.9-0.3-1.8-0.2-2.7,0.2l-42.5,18.4V1360
		c0-1.2-0.5-2.3-1.4-3c-17.3-14.5-26.4-32-26.4-50.5c0-44.8,54.3-81.2,121-81.2c66.7,0,121,36.4,121,81.2
		C2905.7,1351.2,2851.4,1387.6,2784.7,1387.6z"/>
	<path class="st0" d="M2776.1,1288.9c0-6.6-1.5-11.6-4.4-14.7c-2.9-3.2-6.9-4.8-12.1-4.8c-5,0-8.9,1.6-11.8,4.8
		c-2.9,3.2-4.4,8.1-4.4,14.7c0,6.6,1.5,11.6,4.4,14.7c2.9,3.2,6.9,4.8,12.1,4.8c5,0,8.9-1.6,11.8-4.8
		C2774.6,1300.4,2776.1,1295.5,2776.1,1288.9z M2763.2,1298.5c-0.8,1.2-2,1.8-3.5,1.8c-1.5,0-2.6-0.6-3.5-1.8
		c-1.1-1.6-1.7-4.9-1.7-9.7s0.6-8,1.7-9.7c0.8-1.2,2-1.8,3.5-1.8c1.5,0,2.7,0.6,3.5,1.9c1.1,1.6,1.6,4.8,1.6,9.6
		S2764.2,1296.9,2763.2,1298.5z"/>
	<polygon class="st0" points="2799.3,1269.4 2759.9,1347.4 2770.4,1347.4 2809.5,1269.4 	"/>
	<path class="st0" d="M2809.6,1308.5c-5,0-9,1.6-11.9,4.8c-2.9,3.2-4.4,8.1-4.4,14.7c0,6.6,1.5,11.6,4.4,14.8
		c2.9,3.2,6.9,4.8,12.1,4.8c5,0,8.9-1.6,11.8-4.8c2.9-3.2,4.4-8.1,4.4-14.8c0-6.6-1.5-11.5-4.4-14.7
		C2818.6,1310.1,2814.6,1308.5,2809.6,1308.5z M2812.9,1337.6c-0.8,1.2-2,1.8-3.5,1.8c-1.5,0-2.6-0.6-3.5-1.9
		c-1.1-1.6-1.7-4.8-1.7-9.6c0-4.8,0.6-8,1.7-9.7c0.8-1.2,2-1.8,3.5-1.8c1.5,0,2.7,0.6,3.5,1.8c1.1,1.6,1.6,4.9,1.6,9.7
		C2814.6,1332.7,2814,1335.9,2812.9,1337.6z"/>
</g>
<path class="st0" d="M375.2,1731.4h-63.2v-32.7c0-2.2-1.8-3.9-3.9-3.9h-107c-2.2,0-3.9,1.8-3.9,3.9v32.7H134c-2.2,0-3.9,1.8-3.9,3.9
	v160.2c0,2.2,1.8,3.9,3.9,3.9h241.2c2.2,0,3.9-1.8,3.9-3.9v-160.2C379.2,1733.1,377.4,1731.4,375.2,1731.4z M205.1,1702.6h99.1v28.8
	h-99.1V1702.6z M201.1,1739.2h107h63.2v35.5h-82.1v-7.7c0-2.2-1.8-3.9-3.9-3.9H224c-2.2,0-3.9,1.8-3.9,3.9v7.7H138v-35.5H201.1z
	 M227.9,1771h53.4v15.3h-53.4V1771z M138,1891.5v-108.9h82.1v7.7c0,2.2,1.8,3.9,3.9,3.9h61.3c2.2,0,3.9-1.8,3.9-3.9v-7.7h82.1v108.9
	H138z"/>
<g>
	<path class="st0" d="M983.5,1695.5c-26.6,0-55,8-55,22.9v37.2c0,0.6,0.1,1.2,0.2,1.8c-0.1,0.3-0.2,0.7-0.2,1.1v37.2
		c0,0.6,0.1,1.2,0.2,1.8c-0.1,0.3-0.2,0.7-0.2,1.1v37.2c0,0.6,0.1,1.2,0.2,1.8c-0.1,0.3-0.2,0.7-0.2,1.1v37.2
		c0,14.9,28.3,22.9,55,22.9c26.6,0,55-8,55-22.9v-37.2c0-0.4-0.1-0.7-0.2-1.1c0.1-0.6,0.2-1.2,0.2-1.8v-37.2c0-0.4-0.1-0.7-0.2-1.1
		c0.1-0.6,0.2-1.2,0.2-1.8v-37.2c0-0.4-0.1-0.7-0.2-1.1c0.1-0.6,0.2-1.2,0.2-1.8v-37.2C1038.5,1703.5,1010.2,1695.5,983.5,1695.5z
		 M1030.6,1835.7c0,6.1-18.3,15.1-47.1,15.1c-28.7,0-47.1-8.9-47.1-15.1v-27.8c10.3,7,29.1,10.7,47.1,10.7c18,0,36.8-3.7,47.1-10.7
		V1835.7z M1030.6,1795.6c0,6.1-18.3,15-47.1,15c-28.7,0-47.1-8.9-47.1-15v-27.8c10.3,7,29.1,10.7,47.1,10.7
		c18,0,36.8-3.7,47.1-10.7V1795.6z M1030.6,1755.6c0,6.1-18.3,15-47.1,15c-28.7,0-47.1-8.9-47.1-15v-24.9
		c10.3,7,29.1,10.7,47.1,10.7c18,0,36.8-3.7,47.1-10.7V1755.6z M983.5,1703.3c28.7,0,47.1,8.9,47.1,15s-18.3,15.1-47.1,15.1
		c-28.7,0-47.1-8.9-47.1-15.1S954.8,1703.3,983.5,1703.3z M983.5,1890.8c-28.7,0-47.1-8.9-47.1-15v-27.8c10.3,7,29.1,10.7,47.1,10.7
		c18,0,36.8-3.7,47.1-10.7v27.8C1030.6,1881.9,1012.3,1890.8,983.5,1890.8z"/>
	<path class="st0" d="M856.7,1735.5c-26.6,0-55,8-55,22.9v36.3c-4.3-1.1-8.7-1.7-13.2-1.7c-29.1,0-52.8,23.7-52.8,52.8
		s23.7,52.8,52.8,52.8c9.7,0,18.9-2.7,26.8-7.4c10.3,4.7,25.1,7.4,41.3,7.4c26.6,0,55-8,55-22.9v-37.2c0-0.4-0.1-0.7-0.2-1.1
		c0.1-0.6,0.2-1.2,0.2-1.8v-37.2c0-0.4-0.1-0.7-0.2-1.1c0.1-0.6,0.2-1.2,0.2-1.8v-37.2C911.7,1743.5,883.4,1735.5,856.7,1735.5z
		 M903.8,1835.7c0,6.1-18.3,15.1-47.1,15.1c-5.3,0-10.5-0.3-15.5-0.9c0.1-1.3,0.1-2.6,0.1-3.9c0-10.7-3.2-20.9-9.1-29.6
		c7.5,1.5,15.8,2.2,24.4,2.2c18,0,36.8-3.7,47.1-10.7V1835.7z M856.7,1743.4c28.7,0,47.1,8.9,47.1,15c0,6.1-18.3,15-47.1,15
		c-28.7,0-47.1-8.9-47.1-15C809.6,1752.3,828,1743.4,856.7,1743.4z M809.6,1795.6v-24.9c10.3,7,29.1,10.7,47.1,10.7
		c18,0,36.8-3.7,47.1-10.7v24.9c0,6.1-18.3,15-47.1,15c-12.9,0-25-1.8-34.2-5.1c-4-3.4-8.5-6.2-13.3-8.2c0,0,0,0-0.1,0
		C809.5,1796.8,809.6,1796.2,809.6,1795.6z M743.7,1845.9c0-24.8,20.1-44.9,44.9-44.9c6.1,0,12,1.2,17.6,3.6
		c4.3,1.8,8.3,4.3,11.8,7.4c9.8,8.5,15.4,20.9,15.4,33.9c0,2.2-0.2,4.5-0.5,6.7c-3.3,21.8-22.3,38.2-44.4,38.2
		C763.8,1890.8,743.7,1870.6,743.7,1845.9z M856.7,1890.8c-12.7,0-24.8-1.8-33.8-5c8.4-7.2,14.5-17,17.1-28.2c5.4,0.7,10.9,1,16.7,1
		c18,0,36.8-3.7,47.1-10.7v27.8C903.8,1881.9,885.5,1890.8,856.7,1890.8z"/>
	<path class="st0" d="M790.8,1840.4v-11.7c1.9,0.8,3.1,2.4,3.6,4.8l7.6-1c-0.5-3-1.7-5.4-3.6-7.2c-1.9-1.8-4.4-2.9-7.6-3.3v-3h-4.3
		v3c-3.4,0.3-6.2,1.6-8.3,3.8c-2.1,2.2-3.1,5-3.1,8.3c0,3.2,0.9,6,2.7,8.3c1.8,2.3,4.7,4,8.6,5.1v12.5c-1.1-0.5-2.1-1.4-2.9-2.5
		c-0.9-1.2-1.5-2.5-1.8-4.1l-7.8,0.8c0.6,3.9,2,7,4.1,9.1c2.2,2.2,5,3.4,8.4,3.9v5.5h4.3v-5.6c3.9-0.6,6.9-2.1,9.1-4.6
		c2.2-2.5,3.3-5.5,3.3-9.1c0-3.2-0.9-5.9-2.6-8C798.9,1843.4,795.6,1841.7,790.8,1840.4z M786.5,1838.9c-1.3-0.6-2.3-1.3-2.9-2.2
		c-0.6-0.9-1-1.9-1-3c0-1.2,0.3-2.2,1-3.2c0.7-1,1.6-1.6,2.8-2V1838.9z M794.5,1858.4c-0.9,1.1-2.2,1.8-3.7,2.1v-11.7
		c1.8,0.5,3.1,1.3,3.9,2.2c0.8,1,1.2,2.1,1.2,3.5C795.9,1856,795.4,1857.3,794.5,1858.4z"/>
</g>
<g>
	<path class="st0" d="M1524.8,1834c0.2,0,0.5,0,0.7-0.1c4.3-0.8,7.9-2.8,10.6-6c2.7-3.2,4.1-7.1,4.1-11.4c0-3.9-1.2-7.4-3.6-10.3
		c-2.3-2.8-5.9-5-10.8-6.4c-1.2-0.3-2.5-0.1-3.5,0.6c-1,0.7-1.6,1.9-1.6,3.1v26.5c0,1.2,0.5,2.3,1.4,3
		C1523,1833.7,1523.8,1834,1524.8,1834z M1528.7,1809.6c0.7,0.5,1.3,1,1.8,1.6c1.2,1.5,1.8,3.2,1.8,5.4c0,2.5-0.7,4.5-2.3,6.3
		c-0.4,0.5-0.9,0.9-1.3,1.3V1809.6z"/>
	<path class="st0" d="M1518.8,1757.8c0-1.3-0.6-2.5-1.6-3.2c-1-0.7-2.4-0.9-3.6-0.5c-3.4,1.2-6.2,3.2-8.3,6
		c-2.1,2.9-3.1,6.1-3.1,9.5c0,3.2,1,6.2,2.9,9c1.9,2.7,4.6,4.8,8.3,6.3c0.5,0.2,1,0.3,1.6,0.3c0.8,0,1.5-0.2,2.2-0.6
		c1.1-0.7,1.8-2,1.8-3.3V1757.8z M1511,1773.1c-0.6-1.1-0.9-2.3-0.9-3.5c0-1.3,0.3-2.5,0.9-3.7V1773.1z"/>
	<path class="st0" d="M1514.9,1861.8h9.9c2.2,0,3.9-1.8,3.9-3.9v-9.4c8.2-1.8,14.8-5.5,19.7-11c5.6-6.3,8.4-14.2,8.4-23.3
		c0-8.3-2.3-15.2-6.8-20.6c-4.1-4.9-11.1-8.8-21.3-11.9v-13.4c0.1,0.5,0.3,1,0.4,1.5c0.4,2,2.3,3.4,4.4,3.2l17.2-2.2
		c1.1-0.1,2-0.7,2.7-1.6c0.6-0.9,0.9-2,0.7-3c-1.3-7.6-4.5-13.8-9.3-18.5c-4.1-3.9-9.5-6.6-16-7.9v-3.4c0-2.2-1.8-3.9-3.9-3.9h-9.9
		c-2.2,0-3.9,1.8-3.9,3.9v3.3c-7.1,1.3-13.1,4.5-17.7,9.5c-5.4,5.8-8.1,13-8.1,21.4c0,8.2,2.4,15.4,7.1,21.2
		c4.2,5.2,10.4,9.2,18.7,11.9v16.9c-1.4-2-2.4-4.4-2.9-7.2c-0.4-2-2.2-3.4-4.3-3.1l-17.7,1.9c-1.1,0.1-2,0.7-2.7,1.5
		c-0.7,0.9-0.9,1.9-0.8,3c1.5,9.7,5,17.4,10.5,22.9c4.8,4.8,10.8,7.9,17.9,9.3v9C1511,1860,1512.7,1861.8,1514.9,1861.8z
		 M1498.6,1833.9c-3.5-3.5-6-8.4-7.5-14.5l10.1-1.1c0.9,2.8,2.2,5.3,3.9,7.5c2.4,3.1,5.1,5.4,8.1,6.9c1.2,0.6,2.7,0.5,3.8-0.2
		c1.1-0.7,1.8-2,1.8-3.3v-28.5c0-1.8-1.2-3.3-2.9-3.8c-8-2.3-13.9-5.7-17.6-10.2c-3.6-4.5-5.3-9.8-5.3-16.3c0-6.5,2-11.7,6-16
		c4-4.4,9.4-6.8,16.2-7.5c2-0.2,3.6-1.9,3.6-3.9v-2.8h2v2.8c0,2,1.5,3.7,3.5,3.9c6.3,0.8,11.3,2.9,14.9,6.3c2.8,2.7,4.8,6,6,10.1
		l-9.5,1.2c-1.7-4.7-5-8.2-9.5-10.1c-1.2-0.5-2.6-0.4-3.7,0.3c-1.1,0.7-1.8,2-1.8,3.3v26.6c0,1.8,1.2,3.3,2.9,3.8
		c10,2.7,16.8,6.1,20.2,10.2c3.4,4,5,9.1,5,15.5c0,7.3-2.1,13.2-6.5,18.1c-4.4,4.9-10.3,7.9-18.3,9c-1.9,0.3-3.4,1.9-3.4,3.9v8.8h-2
		v-8.4c0-2-1.5-3.7-3.5-3.9C1508.4,1840.7,1502.9,1838.2,1498.6,1833.9z"/>
	<path class="st0" d="M1612.6,1736.6c-1.9,1.1-2.5,3.5-1.3,5.4c10,16.6,15.2,35.6,15.2,55c0,5.3-0.4,10.7-1.2,15.9
		c-7.8,51.8-53.2,90.9-105.7,90.9c-58.9,0-106.8-47.9-106.8-106.8c0-58.9,47.9-106.8,106.8-106.8c14.6,0,28.7,2.9,41.9,8.5
		c5.1,2.2,10.1,4.8,14.8,7.8c0.1,0.1,0.2,0.1,0.3,0.2l-6.7,9.6l31.3,2.6l-13.4-28.4l-6.8,9.8c-0.2-0.1-0.4-0.3-0.6-0.4
		c-5.1-3.2-10.4-6-15.9-8.3c-14.2-6.1-29.4-9.2-45-9.2c-63.3,0-114.7,51.5-114.7,114.7c0,63.3,51.5,114.7,114.7,114.7
		c27.7,0,54.4-10,75.2-28.1c20.6-17.9,34.2-42.6,38.2-69.5c0.8-5.6,1.3-11.4,1.3-17.1c0-20.9-5.7-41.3-16.3-59.1
		C1616.9,1736.1,1614.5,1735.5,1612.6,1736.6z"/>
</g>
<g>
	<path class="st0" d="M2266.6,1668.1h-228.9c-2.2,0-3.9,1.8-3.9,3.9V1901c0,2.2,1.8,3.9,3.9,3.9h38l-14.4,14.4c-1.5,1.5-1.5,4,0,5.6
		c0.8,0.8,1.8,1.2,2.8,1.2c1,0,2-0.4,2.8-1.2l19.9-19.9h130.7l19.9,19.9c0.8,0.8,1.8,1.2,2.8,1.2c1,0,2-0.4,2.8-1.2
		c1.5-1.5,1.5-4,0-5.6l-14.4-14.4h38c2.2,0,3.9-1.8,3.9-3.9V1672C2270.6,1669.9,2268.8,1668.1,2266.6,1668.1z M2262.7,1897h-221
		v-221h221V1897z"/>
	<path class="st0" d="M2082.3,1818.1c0.8,0.8,1.8,1.2,2.8,1.2c1,0,2-0.4,2.8-1.2l7.8-7.8c5.4,4.1,11.8,6.2,18.3,6.2
		c6.5,0,12.9-2.1,18.3-6.2l7.8,7.8c0.8,0.8,1.8,1.2,2.8,1.2c1,0,2-0.4,2.8-1.2c1.5-1.5,1.5-4,0-5.6l-7.8-7.8
		c8.2-10.7,8.2-25.8,0-36.5l7.8-7.8c1.5-1.5,1.5-4,0-5.6c-1.5-1.5-4-1.5-5.6,0l-7.8,7.8c-10.7-8.2-25.8-8.2-36.5,0l-7.8-7.8
		c-1.5-1.5-4-1.5-5.6,0c-1.5,1.5-1.5,4,0,5.6l7.8,7.8c-8.2,10.7-8.2,25.8,0,36.5l-7.8,7.8
		C2080.8,1814.1,2080.8,1816.6,2082.3,1818.1z M2129.6,1770.8c8.6,8.6,8.6,22.7,0,31.4c-8.6,8.6-22.7,8.6-31.4,0
		c-8.6-8.6-8.6-22.7,0-31.4c4.3-4.3,10-6.5,15.7-6.5C2119.6,1764.3,2125.3,1766.5,2129.6,1770.8z"/>
</g>
<g>
	<path class="st0" d="M2873.9,1778.1c-7.1-40.5-40.3-70.6-80.5-74.4l36.1-38.6c1.1-1.1,1.4-2.8,0.7-4.3c-0.6-1.4-2-2.4-3.6-2.4
		h-41.9h-41.9c-1.6,0-3,0.9-3.6,2.4c-0.6,1.4-0.3,3.1,0.7,4.3l36.1,38.6c-40.2,3.8-73.4,33.9-80.5,74.4l-18,102.1
		c-2.4,13.8,1.3,27.9,10.3,38.6c9,10.7,22.2,16.9,36.2,16.9h121.3c14,0,27.2-6.2,36.2-16.9s12.8-24.8,10.3-38.6L2873.9,1778.1z
		 M2784.7,1666.3h32.8l-32.8,35.1l-32.8-35.1H2784.7z M2875.5,1913.7c-7.5,8.9-18.5,14.1-30.2,14.1H2724c-11.7,0-22.7-5.1-30.2-14.1
		c-7.5-8.9-10.6-20.7-8.6-32.2l18-102.1c7-39.6,41.2-68.3,81.4-68.3c40.2,0,74.5,28.7,81.4,68.3l18,102.1
		C2886.2,1893.1,2883,1904.8,2875.5,1913.7z"/>
	<path class="st0" d="M2788.4,1810.4v-19.3c3.2,1.4,5.2,4,5.9,7.9l12.5-1.6c-0.9-4.9-2.8-8.9-5.9-11.8c-3.1-2.9-7.2-4.7-12.5-5.3
		v-4.9h-7.1v4.9c-5.6,0.6-10.2,2.7-13.6,6.3c-3.4,3.7-5.1,8.2-5.1,13.6c0,5.3,1.5,9.8,4.5,13.6c3,3.7,7.7,6.5,14.2,8.4v20.6
		c-1.8-0.9-3.4-2.2-4.8-4.1c-1.4-1.9-2.4-4.2-3-6.8l-12.9,1.4c1,6.5,3.3,11.5,6.8,15c3.5,3.5,8.2,5.7,13.8,6.4v9h7.1v-9.2
		c6.4-0.9,11.4-3.4,15-7.5c3.6-4.1,5.4-9.1,5.4-15c0-5.3-1.4-9.7-4.3-13.1C2801.6,1815.3,2796.3,1812.5,2788.4,1810.4z M2781.2,1808
		c-2.1-0.9-3.7-2.1-4.8-3.6c-1.1-1.5-1.6-3.1-1.6-4.9c0-1.9,0.6-3.6,1.7-5.2c1.1-1.6,2.7-2.7,4.6-3.4V1808z M2794.4,1840
		c-1.5,1.8-3.5,3-6,3.4v-19.2c3,0.9,5.1,2.1,6.4,3.7c1.3,1.6,1.9,3.5,1.9,5.7C2796.7,1836,2795.9,1838.2,2794.4,1840z"/>
</g>
<g>
	<g>
		<path class="st0" d="M1296.4,93.6c4.3,0,7.4,1.2,9.4,3.5c1.8,2.1,2.6,4.9,2.6,8.6v7.4c0,3.6-1.4,6.6-4.1,9.1l5.7,22.2h-8.3
			l-4.7-19.2c-0.2,0-0.5,0-0.7,0h-4.4v19.1h-7.7V93.6H1296.4z M1301,105.9c0-3-1.5-4.4-4.4-4.4h-4.6v16.2h4.6c1.2,0,2.3-0.4,3.1-1.3
			c0.8-0.9,1.3-1.9,1.3-3.1V105.9z"/>
		<path class="st0" d="M1322.3,144.4V93.6h21.8v7.7h-14.1v13.9h10.3v7.7h-10.3v13.9h14.1v7.7H1322.3z"/>
		<path class="st0" d="M1364.1,144.4l-9-50.8h8l6.3,39.5l6.4-39.5h8l-9.2,50.8H1364.1z"/>
		<path class="st0" d="M1396,144.4V93.6h21.8v7.7h-14.1v13.9h10.3v7.7h-10.3v13.9h14.1v7.7H1396z"/>
		<path class="st0" d="M1437.3,93.6l10.1,34.1V93.6h7.7v50.8h-8.2l-10.5-32.5v32.5h-7.7V93.6H1437.3z"/>
		<path class="st0" d="M1479.7,145c-3.4,0-6.2-1.2-8.6-3.5c-2.3-2.3-3.5-5.2-3.5-8.5V93.6h7.5v39.3c0,1.2,0.4,2.2,1.3,3.1
			c0.9,0.9,1.9,1.3,3.1,1.3c1.2,0,2.3-0.4,3.1-1.3c0.8-0.9,1.3-1.9,1.3-3.1V93.6h8V133c0,3.4-1.2,6.3-3.6,8.6
			C1485.9,143.9,1483,145,1479.7,145z"/>
		<path class="st0" d="M1504.3,144.4V93.6h21.8v7.7H1512v13.9h10.3v7.7H1512v13.9h14.1v7.7H1504.3z"/>
		<path class="st0" d="M1566.7,144.4h-7.7V93.6h7.7V144.4z"/>
		<path class="st0" d="M1591.3,145c-3.4,0-6.2-1.2-8.6-3.5c-2.4-2.4-3.5-5.2-3.5-8.6v-27.8c0-3.4,1.2-6.2,3.6-8.6
			c2.4-2.4,5.2-3.5,8.6-3.5c3.4,0,6.2,1.2,8.6,3.6s3.5,5.2,3.5,8.6v5.8h-7.9V105c0-1.2-0.4-2.3-1.3-3.1c-0.9-0.9-1.9-1.3-3.1-1.3
			c-1.2,0-2.2,0.4-3.1,1.3c-0.9,0.9-1.3,1.9-1.3,3.1v27.9c0,1.2,0.4,2.3,1.3,3.1s1.9,1.3,3.1,1.3c1.2,0,2.3-0.4,3.1-1.3
			s1.3-1.9,1.3-3.1v-7h7.9v7.1c0,3.4-1.2,6.2-3.6,8.6C1597.4,143.8,1594.6,145,1591.3,145z"/>
		<path class="st0" d="M1627.3,93c3.4,0,6.3,1.2,8.6,3.6c2.4,2.4,3.5,5.2,3.5,8.6v27.7c0,3.4-1.2,6.2-3.6,8.6
			c-2.4,2.4-5.2,3.5-8.6,3.5c-3.4,0-6.2-1.2-8.6-3.6c-2.3-2.4-3.5-5.2-3.5-8.6v-27.7c0-3.4,1.2-6.2,3.6-8.6
			C1621.1,94.2,1624,93,1627.3,93z M1631.5,105c0-1.2-0.4-2.3-1.3-3.1c-0.8-0.8-1.9-1.3-3.1-1.3c-1.2,0-2.2,0.4-3.1,1.3
			s-1.3,1.9-1.3,3.1v27.8c0,1.2,0.4,2.2,1.3,3.1c0.9,0.9,1.9,1.3,3.1,1.3c1.2,0,2.3-0.4,3.1-1.3c0.8-0.9,1.3-1.9,1.3-3.1V105z"/>
		<path class="st0" d="M1660.5,93.6l10.1,34.1V93.6h7.7v50.8h-8.2l-10.5-32.5v32.5h-7.7V93.6H1660.5z"/>
		<path class="st0" d="M1715.6,131.8c0.1,3.5-0.9,6.6-2.8,9.1c-1.2,1.7-3,2.9-5.3,3.6c-1.2,0.4-2.6,0.6-4.3,0.6
			c-3,0-5.5-0.7-7.5-2.2c-1.6-1.2-2.9-2.9-3.9-5c-1-2.1-1.5-4.5-1.7-7.2l7.3-0.5c0.3,3,1.1,5.1,2.4,6.4c0.9,1,2,1.5,3.1,1.4
			c1.7-0.1,3-0.9,4-2.4c0.5-0.8,0.8-1.9,0.8-3.4c0-2.1-1-4.2-2.9-6.3c-1.5-1.4-3.8-3.6-6.8-6.4c-2.5-2.4-4.3-4.6-5.4-6.6
			c-1.1-2.2-1.7-4.6-1.7-7.1c0-4.6,1.5-8.1,4.6-10.5c1.9-1.4,4.3-2.1,7.1-2.1c2.7,0,5.1,0.6,7,1.8c1.5,0.9,2.7,2.3,3.6,4
			c0.9,1.7,1.5,3.7,1.7,5.9l-7.3,1.3c-0.2-2.1-0.8-3.7-1.8-4.8c-0.7-0.9-1.7-1.3-3-1.3c-1.4,0-2.5,0.6-3.2,1.9
			c-0.6,1-0.9,2.2-0.9,3.7c0,2.3,1,4.7,3,7.1c0.8,0.9,1.9,2,3.4,3.2c1.8,1.5,3,2.5,3.5,3.1c1.9,1.9,3.3,3.8,4.4,5.6
			c0.5,0.9,0.9,1.7,1.2,2.4C1715.2,128.7,1715.6,130.3,1715.6,131.8z"/>
	</g>
	<g>
		
			<rect x="1183.7" y="105" transform="matrix(-0.7071 0.7071 -0.7071 -0.7071 2128.8152 -643.7841)" class="st0" width="28" height="28"/>
		
			<rect x="1788.3" y="105.3" transform="matrix(-0.7071 0.7071 -0.7071 -0.7071 3161.0229 -1070.6989)" class="st0" width="28" height="28"/>
	</g>
</g>
</svg>
